<svg xmlns="http://www.w3.org/2000/svg" width="550.413" height="513.28" viewBox="0 0 550.413 513.28" fill="none">
    <g opacity=".9">
        <path transform="translate(-1419.765 -1742.531)" fill="url(#gradient)" d="M1735.818,1857.023a8.594,8.594,0,0,1,7.084-7.084,8,8,0,0,1-7.084-7.084,8.09,8.09,0,0,1-7.084,7.084,8.7,8.7,0,0,1,7.084,7.084Zm84.172,203.6a12.782,12.782,0,0,1,10.537-10.537,11.9,11.9,0,0,1-10.537-10.537,12.034,12.034,0,0,1-10.536,10.537,12.945,12.945,0,0,1,10.536,10.537Zm-164.472,88.433a8.288,8.288,0,0,1,6.831-6.831,7.717,7.717,0,0,1-6.831-6.831,7.8,7.8,0,0,1-6.831,6.831,8.4,8.4,0,0,1,6.831,6.831Zm43.387-33.8a4.322,4.322,0,0,1,3.563-3.562,4.024,4.024,0,0,1-3.562-3.562,4.068,4.068,0,0,1-3.562,3.562,4.377,4.377,0,0,1,3.562,3.563Zm26.505-30.659-1.351-.066a.873.873,0,0,0-.915.829l-.136,2.765a.873.873,0,0,0,.754.908h.076l3.548.174,3.257.16h.112l.02,0h0l.015,0h.006l.014,0h.006l.016,0h0l.013,0h0a.873.873,0,0,0,.254-.093h0c.021-.011.041-.024.061-.037h0l.014-.01h0l.013-.009,0,0,.012-.009h0c.018-.014.036-.028.053-.043l0,0,.011-.01,0,0,.011-.01,0,0,.024-.024.012-.013.01-.011,0,0,.01-.012,0,0,.009-.011,0,0,.009-.011v0l.009-.012,0-.006.013-.018,0-.006v0l.008-.013h0l.007-.011,0-.006.006-.01,0-.006.006-.011,0,0,.007-.012.009-.016h0l.008-.016h0l0-.009,0-.008,0-.01,0-.01,0-.007.005-.013,0-.006,0-.013,0-.007h0l.006-.017h0l.006-.019,0-.007,0-.013,0-.007,0-.014,0-.006,0-.013v-.007l0-.015v0h0l0-.018h0v-.007l0-.015v-.005l0-.014v-.05c0-.007,0-.014,0-.021l.136-2.765a.874.874,0,0,0-.829-.916l-.762-.037a.89.89,0,0,0-.824.438,1.874,1.874,0,0,1-1.606,1.145h-.011c-.045,0-.088-.013-.132-.02v.005a1.97,1.97,0,0,1-1.341-1.281.889.889,0,0,0-.778-.516Zm-1.692,7.767-.053-.023c-.079-.036-.144-.066-.187-.087a.8.8,0,0,0,.743.659l5.693.289h.135a.8.8,0,0,0,.7-.751l.03-.594,0-.06v-.007l.026-.51a.8.8,0,0,0-.756-.837l-.505-.026h-.012l-1.564-.079-.643-.033h0l-2.45-.124a1.316,1.316,0,0,0-1.381,1.247l-.007.136a1.31,1.31,0,0,0,.226.807Zm.621.939c-.812,7.79-5.753,9.2-5.753,9.2,6.427,5.71,7.117,15.607,7.117,15.607l.479-12.274a2,2,0,0,1,.559-3.946v0h.025a2,2,0,0,1,.165,3.984l-.624,12.265c2.28-10.675,8.242-14.826,8.242-14.826a10.633,10.633,0,0,1-4.913-9.744l-2.465-.125h0Zm-21.082.008c-19.081,9.2-30.808,21.387-28.157,31.115,3.6,13.2,32.291,16.878,64.093,8.215s54.669-26.388,51.073-39.587c-2.982-10.947-23.228-15.339-48.191-11.581.025.037.049.074.073.112,20.131-2.682,36.109.819,38.455,9.434,2.942,10.8-17.29,23.223-44.41,30.61s-50.857,6.943-53.8-3.857c-2.021-7.421,6.6-16.7,20.993-24.183A1.8,1.8,0,0,1,1703.259,2093.311Zm-2.4,46.551c-8.923-.527-15.748,1.554-16.77,5.685-1.386,5.6,8.435,12.854,21.936,16.193s25.57,1.5,26.956-4.1c1.15-4.647-5.41-10.425-15.384-14.167,0,.019,0,.038,0,.056,7.971,3.146,13.141,7.719,12.236,11.376-1.134,4.585-11.143,5.008-22.656,2.16s-20.171-7.888-19.037-12.473c.779-3.151,5.865-4.8,12.7-4.6a.8.8,0,0,1,.009-.129Zm-2.791-362.211a206.359,206.359,0,0,1,189.314,124.2,122.212,122.212,0,0,0,10.3-12.551,19.269,19.269,0,0,1,28.9,25.491c-46.175,49.788-103.924,88.215-164.549,120.622q.723-1,1.5-2.1c5.71-28.007-7.747-57.925-8.132-59.016,1.531,21.153-3.415,25.4-4.869,27.967,1.176-4.295,1.109-13.772.478-13.993h0c-2.369-12.421-14.6-28.217-14.6-28.217a45.411,45.411,0,0,1-7.913,20.083l3.69-15c3.69-15-14.317-38.581-14.317-38.581a6.1,6.1,0,0,1-3.136,6.569c4.334-12.836-13.005-25.832-13.005-25.832.791,7.419-5.015,13.548-5.015,13.548,2.716-23.391-26.382-42.919-26.382-42.919a6.217,6.217,0,0,1-1.467,6.835c-1.157-14.273-20.592-23.755-20.592-23.755,2.4,3.923-.44,6.362-.44,6.362-7.66-21.133-55.76-41.214-55.76-41.214-.2,5.559,4.07,11.663,8.558,16.5a272.486,272.486,0,0,1,17.073,27.382,242.468,242.468,0,0,1,12.512,26.771,78.3,78.3,0,0,0,7.161,4.367,86.109,86.109,0,0,0,8.305,3.918,18.765,18.765,0,0,1-9.2-1.091,14.753,14.753,0,0,1-4.965-3.154,137.156,137.156,0,0,1,10.711,20.906,121.286,121.286,0,0,1,4.117,11.856,154.049,154.049,0,0,0,18.175,8.374c2.67,1.028,5.266,1.946,7.768,2.766a72.93,72.93,0,0,1-12.626-2.474,67.326,67.326,0,0,1-15.3-6.532c.2,2.94,1.471,14.185,14.084,23.31a51.925,51.925,0,0,0,13.041,6.71,18.144,18.144,0,0,1-8.809.895,19.289,19.289,0,0,1-9.089-3.636c.775,3.725,3.437,13.188,14.19,22.714a67.263,67.263,0,0,0,14.406,9.625c-3.158.67-7.023,2.466-16.752-3.562,2.3,9.772,13.545,27.075,38.158,38.713-14-.25-21.292-5.359-32-11.512-.179,6.267,1.206,16.767,10.322,27.671,7.349,8.79,16.673,14.2,23.308,17.245l-1.909.9c-1-.3-2.033-.64-3.091-1.028a48.6,48.6,0,0,1-15.4-9.058,122.95,122.95,0,0,0,14.188,12.111q-5.821,2.733-11.638,5.417c-24.613,11.36-78.551,34.426-129.305,49.27q-5.457,1.778-10.715,3.34l-.24-.258c-30.877,8.347-59.656,13.029-78.731,9.379-8.985-1.719-14.737-5.262-17.637-10.18-3.287-5.574-3.073-12.961.16-21.61,6.046-16.17,22.892-35.576,46.882-54.158,1.471-1.141,2.781-1.531,3.7-1.235a206.108,206.108,0,0,1-9.748-62.827c0-113.95,92.375-206.324,206.324-206.324Zm30.188,275.11q-2.352,1.163-4.706,2.317c-2.1-19.637-5.782-43.713-11.708-60.218h0a373.62,373.62,0,0,0-18.909-53.307c-14.383-32.409-30.12-54.956-56.822-75.047a218.385,218.385,0,0,0-30.624-19.158l-.09-.087a221.2,221.2,0,0,1,31.352,17.986c13.435,9.3,42.457,31.815,66.578,86.865a295.684,295.684,0,0,1,14.965,42.68h-.006c4.266,12.594,8.106,36.516,9.97,57.969Zm-108.606-154.131.584.25a43.754,43.754,0,0,1-9.152-11.89c-4.055-8.031-2.406-12.623-7.3-17.846-3.191-3.4-7.561-5.368-11.431-6.564l.018.021.01.012.009.01c.384.456.909,1.114,1.479,1.907l.009,0c.307.429.629.9.951,1.412,4.752,7.533,2.924,12.684,4.478,17.192,1.311,3.8,5.738,9.206,20.35,15.491Zm-13.36,29.1a5.992,5.992,0,0,1,4.939-4.939,5.579,5.579,0,0,1-4.939-4.938,5.64,5.64,0,0,1-4.938,4.938,6.068,6.068,0,0,1,4.938,4.939Zm-69.2,185.289a206.455,206.455,0,0,1-25.738-41.177c-.957-2.031-6.468-15.259-7.027-16.784q-.813-2.214-1.576-4.452a15.5,15.5,0,0,1-5.293,8.545c-19.891,15.407-33.324,30.07-37.373,40.9-1.638,4.381-1.6,8.377.385,11.737,2.368,4.015,7.324,6.958,15.226,8.469,15.365,2.94,36.577-.008,61.4-7.238Zm366.99-140.352q.3,5.617.312,11.309c0,113.95-92.375,206.324-206.324,206.324a205.552,205.552,0,0,1-138.055-53c51.878-13.312,107.846-35.337,133.185-46.154,8.6-3.673,17.528-7.637,26.685-11.861q2.959,1.418,5.811,2.624c-.071-1.519-.167-3.261-.289-5.189q2.008-.94,4.03-1.9c.028,2.528,0,4.9-.077,7.084a103.565,103.565,0,0,0,20.131-16.8c51.473-25.53,107.259-57.781,154.59-92.443Z"/>
        <path transform="translate(-24870.744 -4612.125)" fill="url(#gradient)" d="M25396.576,4705.08l7.3,6.956,10.082.242.242,10.08,6.957,7.3-6.957,7.3-.242,10.08-10.082.243-7.3,6.956-7.3-6.956-10.082-.243-.238-10.08-6.957-7.3,6.957-7.3.238-10.08,10.082-.242Z"/>
        <path transform="translate(-20273.941 -0.01)" fill="url(#gradient)" d="M20719.316,73.54a44.6,44.6,0,0,0-36.766-36.765,42.109,42.109,0,0,0,24.012-11.106A42.3,42.3,0,0,0,20719.316.01a42.77,42.77,0,0,0,12.938,25.66,42.547,42.547,0,0,0,23.826,11.106,45.167,45.167,0,0,0-36.764,36.765Z"/>
        <path transform="translate(0.01 -13251.396)" fill="url(#gradient)" d="M14.105,13546.7a17.3,17.3,0,0,0-4.9-9.436,17.275,17.275,0,0,0-9.219-4.68,16.174,16.174,0,0,0,9.219-4.264,16.247,16.247,0,0,0,4.9-9.852,16.121,16.121,0,0,0,14.115,14.115,17.339,17.339,0,0,0-14.115,14.115Z"/>
        <path transform="translate(-4769.493 -21119.49)" fill="url(#gradient)" d="M4909.434,21632.77a53.145,53.145,0,0,0-43.814-43.814,49.5,49.5,0,0,0,43.814-43.814,50.044,50.044,0,0,0,43.813,43.814,53.827,53.827,0,0,0-43.813,43.814Z"/>
    </g>
    <defs>
        <linearGradient id="gradient" x1="275,2065" x2="275,2065" y1="0" y2="500.28" gradientUnits="userSpaceOnUse">
            <stop/>
            <stop offset="1" stop-color="#3D3D3D"/>
        </linearGradient>
    </defs>
</svg>
